<svg width="59" height="13" viewBox="0 0 59 13" fill="none" xmlns="http://www.w3.org/2000/svg">
<path d="M7.72819 4.82822H11.2762V10.904H0V4.82822H3.548V7.85989H7.71529V4.82822H7.72819ZM19.7269 7.93474C19.7269 8.97025 19.0302 9.5691 18.0625 9.5691C17.1207 9.5691 16.4111 8.95777 16.4111 7.93474V3.04415H14.8371V7.92227C14.8371 9.84357 16.2563 11.0662 18.0754 11.0662C19.9075 11.0662 21.3138 9.84357 21.3138 7.92227V3.04415H19.7398V7.93474H19.7269ZM25.365 5.3023C24.7586 5.3023 24.0877 5.55182 23.7393 6.12572V5.45202H22.2685V10.904H23.7909V7.76008C23.7909 7.1238 24.178 6.62476 24.8489 6.62476C25.5843 6.62476 25.8939 7.09885 25.8939 7.71017V10.8916H27.4164V7.46065C27.4035 6.26296 26.7584 5.3023 25.365 5.3023ZM30.9515 7.59789C30.9515 7.59789 30.4354 7.49808 30.1128 7.4357C29.7903 7.37332 29.5968 7.21113 29.5968 6.94914C29.5968 6.63724 29.8806 6.41267 30.2806 6.41267C30.8482 6.41267 31.0676 6.68714 31.1192 7.02399H32.4352C32.4223 6.27543 31.8159 5.3023 30.3064 5.3023C29.0936 5.3023 28.2034 6.11324 28.2034 7.08637C28.2034 7.84741 28.6936 8.48369 29.7774 8.70825L30.5515 8.87044C30.9902 8.95777 31.1579 9.15739 31.1579 9.40691C31.1579 9.69386 30.8869 9.94338 30.3838 9.94338C29.7774 9.94338 29.4419 9.60653 29.3645 9.21977H28.0098C28.0873 10.0307 28.6936 11.0662 30.3967 11.0662C31.8675 11.0662 32.6158 10.1555 32.6158 9.26967C32.6287 8.47121 32.061 7.82246 30.9515 7.59789ZM39.1054 8.15931C39.1054 9.80614 38.0346 11.0288 36.4476 11.0288C35.6735 11.0288 35.0929 10.7294 34.822 10.3676V13H33.2996V5.45202H34.7704V6.12572C35.0284 5.70154 35.6477 5.32726 36.4992 5.32726C38.1507 5.32726 39.1054 6.5499 39.1054 8.15931ZM37.6088 8.17179C37.6088 7.21113 36.9895 6.64971 36.2154 6.64971C35.4413 6.64971 34.8091 7.21113 34.8091 8.17179C34.8091 9.13244 35.4413 9.70633 36.2154 9.70633C36.9895 9.70633 37.6088 9.14491 37.6088 8.17179ZM46.382 5.45202H47.8528V10.904H46.3304V10.2303C46.0724 10.667 45.4789 11.0288 44.7048 11.0288C43.1179 11.0288 42.047 9.80614 42.047 8.15931C42.047 6.53743 43.0018 5.32726 44.6403 5.32726C45.4918 5.32726 46.0982 5.70154 46.3691 6.12572V5.45202H46.382ZM46.3562 8.17179C46.3562 7.21113 45.724 6.64971 44.9499 6.64971C44.1758 6.64971 43.5565 7.21113 43.5565 8.17179C43.5565 9.14491 44.1758 9.70633 44.9499 9.70633C45.724 9.70633 46.3562 9.13244 46.3562 8.17179ZM39.815 10.8916H41.3374V3.04415H39.815V10.8916ZM56.897 5.3023C56.3551 5.3023 55.7358 5.47697 55.3746 5.90115V3.04415H53.8522V10.8916H55.3746V7.6977C55.4133 7.09885 55.7875 6.63724 56.4325 6.63724C57.1679 6.63724 57.4776 7.11132 57.4776 7.72265V10.904H59V7.47313C58.9871 6.26296 58.3291 5.3023 56.897 5.3023ZM51.4782 7.59789C51.4782 7.59789 50.9622 7.49808 50.6396 7.4357C50.3171 7.37332 50.1236 7.21113 50.1236 6.94914C50.1236 6.63724 50.4074 6.41267 50.8073 6.41267C51.375 6.41267 51.5944 6.68714 51.646 7.02399H52.962C52.9491 6.27543 52.3427 5.3023 50.8332 5.3023C49.6204 5.3023 48.7302 6.11324 48.7302 7.08637C48.7302 7.84741 49.2204 8.48369 50.3042 8.70825L51.0783 8.87044C51.5169 8.95777 51.6847 9.15739 51.6847 9.40691C51.6847 9.69386 51.4137 9.94338 50.9106 9.94338C50.3042 9.94338 49.9687 9.60653 49.8913 9.21977H48.5366C48.614 10.0307 49.2204 11.0662 50.9235 11.0662C52.3943 11.0662 53.1426 10.1555 53.1426 9.26967C53.1555 8.47121 52.5878 7.82246 51.4782 7.59789ZM7.72819 0H3.548V3.04415H7.71529V0H7.72819Z" fill="black"/>
</svg>
